Coordinates
version=1
nRows=5
nColumns=40
inDegrees=yes

Units are S.I. units (second, meters, Newtons, ...)
Angles are in degrees.

endheader
time	pelvis_tilt	pelvis_list	pelvis_rotation	pelvis_tx	pelvis_ty	pelvis_tz	hip_flexion_r	hip_adduction_r	hip_rotation_r	knee_angle_r	knee_angle_r_beta	ankle_angle_r	subtalar_angle_r	mtp_angle_r	hip_flexion_l	hip_adduction_l	hip_rotation_l	knee_angle_l	knee_angle_l_beta	ankle_angle_l	subtalar_angle_l	mtp_angle_l	lumbar_extension	lumbar_bending	lumbar_rotation	arm_flex_r	arm_add_r	arm_rot_r	elbow_flex_r	pro_sup_r	wrist_flex_r	wrist_dev_r	arm_flex_l	arm_add_l	arm_rot_l	elbow_flex_l	pro_sup_l	wrist_flex_l	wrist_dev_l
      1.11000000	     -0.87370254	      3.09243585	      0.23524001	      0.46601044	      0.95440978	     -1.52794391	     25.64490333	    -12.55244745	    -21.83243670	    -39.26818990	     -0.68535921	      3.55399628	    -12.43862995	     16.01531994	     -3.12106339	     -2.74004781	     11.93057451	    -10.38817206	     -0.18130781	      5.54392684	     -0.64463983	     -8.90785858	     -3.51119187	     -1.64090334	     -7.27157690	     -0.02320133	     -9.43382357	    -12.32368277	     21.14389757	     89.95437384	      0.00000000	      0.00000000	     14.49326813	     20.76474829	      7.02396650	     27.43984368	     89.95437384	      0.00000000	      0.00000000
      1.12000000	     -1.18068661	      3.08235804	      0.48302574	      0.47672145	      0.95258309	     -1.52766191	     26.39576231	    -12.17140300	    -22.40428556	    -36.13871419	     -0.63073955	      3.58155860	    -11.40491047	     15.91769683	     -3.59894754	     -2.71082334	     11.67866312	    -10.23098159	     -0.17856431	      5.94475237	     -0.60806587	     -9.12263713	     -3.25815921	     -1.57398717	     -7.78577162	     -0.55359634	     -9.34194484	    -12.53163065	     20.87298173	     89.95437384	      0.00000000	      0.00000000	     15.62809304	     21.55429700	      6.97651822	     28.32390333	     89.95437384	      0.00000000	      0.00000000
      1.13000000	     -0.85132866	      2.68615686	      0.83138076	      0.48799778	      0.95188687	     -1.52739534	     26.01433353	    -11.43651705	    -23.59074142	    -32.42740570	     -0.56596500	      3.54996956	    -10.21795126	     15.89054077	     -4.78761774	     -2.19919413	     11.75946697	    -10.07185359	     -0.17578701	      6.30442549	     -0.72780479	     -9.72870539	     -3.72098989	     -1.02976765	     -8.38811861	     -0.87772498	     -9.25766237	    -13.23290789	     20.40551789	     89.95437384	      0.00000000	      0.00000000	     16.80828290	     22.27941800	      6.85137117	     29.13600508	     89.95437384	      0.00000000	      0.00000000
      1.14000000	     -0.69727158	      2.52023226	      1.01081582	      0.49933756	      0.95065677	     -1.52671812	     25.97366026	    -10.89917816	    -24.49659706	    -28.97881681	     -0.50577577	      3.15506555	     -9.15880654	     15.76431401	     -5.80096892	     -1.88764688	     12.14574354	     -9.91531162	     -0.17305483	      6.42461872	     -1.46682970	    -10.52738497	     -3.95212851	     -0.77194289	     -8.75304928	     -1.32143105	     -9.18414758	    -13.75438696	     20.02942423	     89.95437384	      0.00000000	      0.00000000	     17.98941523	     22.95192386	      6.78972253	     29.87418965	     89.95437384	      0.00000000	      0.00000000
      1.15000000	     -0.61671165	      2.24964649	      0.98002698	      0.51090246	      0.94917101	     -1.52530507	     25.96406144	    -10.09537927	    -25.31157987	    -25.44586507	     -0.44411413	      2.36159468	     -8.29577350	     14.26190434	     -6.66381186	     -1.32124086	     13.37681967	     -9.92503596	     -0.17322456	      5.93470801	     -3.15940370	    -13.65603462	     -4.01970217	     -0.44353451	     -9.00056279	     -1.66969288	     -9.11440044	    -14.20380636	     19.48648163	     89.95437384	      0.00000000	      0.00000000	     18.94862277	     23.68353346	      6.73340872	     30.67110017	     89.95437384	      0.00000000	      0.00000000
